<?xml version="1.0" encoding="UTF-8"?>
<svg version="1.1" viewBox="0 0 1896 1880" width="474" height="470" xmlns="http://www.w3.org/2000/svg">
<path transform="translate(993,112)" d="m0 0h36l22 3 22 5 21 7 18 8 15 8 20 14 11 9 13 12 10 10 13 17 12 18 11 21 9 24 6 23 3 16 2 20v25l-1 13-1 4 7-1h28l24 3 20 5 16 6 19 10 18 12 14 11 13 13 13 17 11 18 7 16 6 18 5 24 2 19v16l-3 23-6 23-7 19-8 15-8 12-9 12-11 12-13 13-14 10-19 11-17 8-20 6-22 4-8 1-20 1h-280l-1-2v-18l1-5 303-1 22-5 24-8 19-10 14-10 13-12 11-12 9-13 10-18 8-21 4-17 2-14v-25l-3-21-6-21-8-18-9-15-10-13-12-13-11-10-15-10-15-8-19-7-16-4-14-2h-34l-15 3-16 4h-5l1-7 5-27 1-7v-39l-4-26-7-24-7-17-10-19-7-11-9-12-9-10-4-5-8-7-11-9-19-13-14-8-15-7-27-9-21-4-8-1h-41l-21 3-19 5-19 7-16 8-17 10-14 10-13 12-4 4h-2l-2 4-13 15-12 18-9 16-8 19-7 24-6 34-5-2-5-4-16-8-19-8-18-6-23-5-16-2h-32l-24 3-24 6-20 8-21 11-11 7-16 12-13 12-9 9-9 11-8 11-8 13-12 25-7 21-5 24-2 17v23l2 20 5 25 9 26 8 16 8 14 10 14 9 11 12 13 14 12 16 11 15 9 19 9 24 8 17 4 28 3 243 1 1 1v23l-1 1h-228l-29-2-23-3-20-5-22-8-18-8-18-10-19-14-14-12-19-19-13-17-10-16-8-14-11-26-6-21-4-20-2-16v-40l3-23 5-21 7-20 8-18 10-18 8-12 12-16 16-17 14-12 17-13 15-9 19-10 20-8 22-6 27-5 10-1h32l19 2 20 4 33 11 13 6 1-8 6-20 8-18 11-21 11-17 13-16 12-13 12-11 14-11 18-12 24-12 20-8 19-5 24-4z" fill="#010101"/>
<path transform="translate(1106,217)" d="m0 0 4 4 9 15-1 5-14 10-7 7-7 6-7 8-7 10v2l24-8 26-6 10-2 5 1 2 23-9 2-19 4-20 6-21 9-16 8-14 8-13 9-14 10-14 12-8 7-11 11-9 11-12 14-1 2v200l17-11 28-17 22-12 24-11 32-13 36-12 26-6 34-6 37-4 11-14 14-15 14-11 17-12 21-12 21-9 5 1 5 17v5l-18 7-23 13-14 10-11 9-9 9-1 2 26 2 32 4 27 6 16 5-2 9-4 13-10-1-29-6-26-4-28-2h-29l-33 2 7 8 7 6 7 8 10 13 13 21 12 23 8 21-1 5-17 4h-5l-11-26-10-19-12-17-8-10-17-17-9-8-7-5-10 1-39 11-33 12-27 12-19 10-21 11-23 14-18 12-4 3h-2v344h72l4 2 12 20v2h-201l5-10 8-13 2-1h73v-358l-1-58-11-12-18-18-11-9-18-14-22-13-21-11-20-8-21-7-19-5-9 5-19 12-17 13-13 11-10 9-16 15-15 16-7 8-9 11-2 3-4-2-12-10-4-4 9-11 12-14 10-10 7-8 10-10 8-7 13-12 14-11 13-10 1-1-6-1-41-1-26 2-12 2h-7l-4-18v-5l20-3 16-1-3-5-10-12-10-8-14-9-23-10 1-13 2-11 4-1 19 7 18 10 13 10 13 12 15 20 4 6v2l36 2 25 4 29 7 27 8 15 6 21 10 23 13 19 12 16 13 14 12 7 7h1v-192l-4-8-13-13-15-10-17-8-21-6 1-9 3-15 8 1 16 5 12 5 17 9 13 10v-35l1-19 2-1 21 1 1 1 1 124h2l2-4 21-21 11-9 18-14 16-10 4-4 6-14 10-17 10-14 12-13 15-14 16-12z" fill="#010101"/>
<path transform="translate(880,1217)" d="m0 0 5 1 8 25 26 86 9 30 2 1 4-17 14-51 11-39 9-32 3-4h34l14 1v234l-6 1h-27l-3-1-1-138 1-10h-2l-1 7-7 24-21 76-10 37-3 5-18-1-4-9-21-69-14-45-4-11v134l-7 1-29-1v-234z" fill="#010101"/>
<path transform="translate(1169,1218)" d="m0 0h26l14 4 11 6 10 9 7 9 6 13 3 17v114l-2 17-5 13-9 13-9 8-9 5-10 4-9 2h-23l-12-3-14-7-10-9-6-7-7-14-3-13-1-13v-108l2-13 5-15 7-11 8-8 11-7 10-4zm6 35-9 2-8 6-3 5-1 4-1 96v22l2 15 4 7 7 5 6 2h20l9-4 6-7 3-9v-124l-3-9-5-6-8-4-7-1z" fill="#010101"/>
<path transform="translate(660,1217)" d="m0 0 47 1 3 17 24 144 11 68v5l-1 1h-32l-3-2-3-22-49-1-2 16-1 7-3 2h-18l-15-1 1-12 11-68 25-149 2-5zm21 72-2 6-15 92v7h35l-2-19-11-67-3-18z" fill="#010101"/>
<path transform="translate(240,1218)" d="m0 0h49l2 5 13 81 15 88 9 55 1 5-6 1-30-1-2-7-2-14-1-2h-49l-1 13-2 10-2 1-33-1 1-13 24-144 10-59 3-17zm23 70-4 22-10 63-3 17v4h36l-1-12-12-77-4-17z" fill="#010101"/>
<path transform="translate(1613,1218)" d="m0 0h25l12 3 14 7 11 10 7 11 4 9 3 17v21l-1 1-18 1h-15l-2-6v-14l-2-11-4-6-5-4-5-2-6-1h-13l-10 3-6 5-3 6-1 4v13l4 10 7 7 14 9 20 12 19 13 9 8 9 12 6 12 2 7 1 8v12l-2 12-5 13-6 9-8 9-10 7-13 5-9 2h-23l-12-3-14-7-10-9-7-9-6-13-3-14v-24h35l1 1 1 23 4 11 6 5 8 3h19l9-4 5-5 3-8v-17l-5-10-7-7-17-11-26-16-12-9-7-6-8-10-7-15-2-8v-17l3-14 4-10 7-10 5-6 10-7 8-4 9-3z" fill="#010101"/>
<path transform="translate(1373,1217)" d="m0 0h16l28 1 12 3 10 4 12 8 9 9 8 14 4 11 2 10v24l-4 16-7 14-8 10-11 9-10 5-13 4-17 2-21 1-1 90h-36l-1-232 1-2zm10 36-1 1v71h31l11-4 6-4 5-6 3-10v-24l-3-10-7-8-12-5-10-1z" fill="#010101"/>
<path transform="translate(425,1218)" d="m0 0h36l1 197-1 2h71l1 1v34l-16 1-92-1z" fill="#010101"/>
<path transform="translate(810,1018)" d="m0 0h277l5 5 6 11 4 7v2h-306l-1-2 12-20z" fill="#010101"/>
<path transform="translate(632,1567)" d="m0 0 6 1 9 16 15 29 12 24 10 19 4 7 1-91 3-4h11v132l-4 2h-5l-6-7-8-15-22-44-10-19-6-11-1 4-1 90-3 2-8-1-1-2-1-9v-88l1-32z" fill="#010101"/>
<path transform="translate(1326,1567)" d="m0 0h5l5 6 14 27 15 30 10 18 8 15 1-94 1-1h10l3 3v89l-1 38-3 4-4 1-5-5-8-14-19-38-10-19-11-20v-2h-2v92l-1 4h-10l-2-3v-126l2-4z" fill="#010101"/>
<path transform="translate(529,1567)" d="m0 0h19l12 4 9 8 6 12 1 5v74l-2 11-5 9-9 8-8 3-6 1h-18l-10-3-7-5-7-10-3-10-1-13v-53l1-14 4-10 6-8 8-6zm7 13-10 2-7 5-4 7-1 5v74l3 8 7 6 6 2h17l8-4 5-5 2-6 1-11v-62l-2-9-5-7-8-4z" fill="#010101"/>
<path transform="translate(1477,1567)" d="m0 0h15l10 3 8 6 6 8 3 7 1 5v7l-2 4-2 1h-6l-3-6-5-13-7-6-3-1h-14l-6 3-6 7-2 7v73l3 8 5 5 6 3h13l8-4 4-5 2-6 1-20v-5l-17-1-6-1v-10l1-2h33l3 5v34l-3 11-7 9-8 6-11 3h-14l-10-3-8-6-6-9-3-9-1-13v-54l1-13 3-10 6-8 7-6z" fill="#010101"/>
<path transform="translate(789,1567)" d="m0 0h10l10 3 9 6 6 9 3 9v8l-5 5-4-1-3-4-6-14-6-5-3-1h-11l-8 5-4 8v10l4 7 8 5 17 3 12 6 7 6 6 10 3 9v16l-4 12-7 9-7 6-8 4-4 1h-18l-11-4-9-7-7-11-3-9v-11l2-4 6-1 3 3 4 15 5 7v2l12 6h14l9-5 6-7 2-5 1-9-2-10-5-8-6-5-5-2-18-3-10-6-7-8-4-10v-15l4-10 8-9 10-5z" fill="#010101"/>
<path transform="translate(888,1568)" d="m0 0h10l2 2 1 102 3 8 5 5 7 3h17l7-3 5-6 2-4 1-10 1-96 1-1h9l3 2 1 69-1 35-3 10-4 6-7 7-9 4-6 1h-19l-11-4-8-7-5-8-3-10v-102z" fill="#010101"/>
<path transform="translate(406,1567)" d="m0 0h14l10 3 8 6 5 6 4 8 1 5v8l-2 4-6 1-4-4-5-13-6-7-5-2h-14l-8 4-4 6-2 7v73l3 8 7 6 5 2h12l8-4 4-5 5-15 2-2 8 1 2 2v10l-3 9-6 8-7 6-11 4h-16l-11-4-8-7-6-10-2-7-1-69 2-14 5-10 5-6 10-6z" fill="#010101"/>
<path transform="translate(1083,319)" d="m0 0h18l15 4 13 7 12 12 8 13 3 8v6l-6 3-5 1h-21l-16-5-12-7-10-9-9-14-5-14 10-4z" fill="#010101"/>
<path transform="translate(1027,236)" d="m0 0h10l7 1 1 3-3 14-4 10-7 10-9 10-12 7-14 5-5 1h-9l-13-2v-10l5-13 5-9 9-10 9-8 16-7z" fill="#010101"/>
<path transform="translate(834,511)" d="m0 0h22l11 3 1 1-1 8-7 14-8 10-8 7-10 5-9 4-12 2h-8l-15-3-5-3 4-13 7-12 6-7 11-8 12-6z" fill="#010101"/>
<path transform="translate(1258,553)" d="m0 0h7l14 4 16 9 9 9 8 14 4 12 1 5v18l-2 3h-10l-15-5-10-7-9-8-9-14-4-10-2-8v-16z" fill="#010101"/>
<path transform="translate(1175,577)" d="m0 0 5 5 4 13 1 5v16l-3 14-6 12-11 12-10 8-9 4-3-1-5-11-2-9v-19l3-11 7-14 9-11 13-9z" fill="#010101"/>
<path transform="translate(737,343)" d="m0 0 9 3 13 7 10 10 8 14 4 11 2 18-3 15-4 9h-3l-14-8-9-7-8-9-8-15-3-11v-18l3-12z" fill="#010101"/>
<path transform="translate(859,336)" d="m0 0h10l16 3 14 7 10 9 7 8 7 15 2 7v8l-9 2-16-1-15-4-10-5-9-7-8-10-7-14-3-12 1-5z" fill="#010101"/>
<path transform="translate(1129,436)" d="m0 0 4 1 6 12 3 10 1 7v10l-3 14-8 16-11 12-13 9-3-1-6-13-3-10-1-14 3-16 4-10 9-13 12-10z" fill="#010101"/>
<path transform="translate(586,479)" d="m0 0h21l14 4 11 6 10 8 7 9 5 9-2 4-12 5-12 3h-15l-11-3-14-7-11-9-7-9-5-9v-3l14-6z" fill="#010101"/>
<path transform="translate(1132,1567)" d="m0 0h71l1 4-1 8-2 1-27 1v109l-1 10-3 2h-6l-3-3-1-9v-110h-28l-1-1v-11z" fill="#010101"/>
<path transform="translate(1016,1568)" d="m0 0h8l3 2v119h46l2 1v10l-1 2h-57l-2-1-1-3-1-37v-80l1-12z" fill="#010101"/>
<path transform="translate(1257,1568)" d="m0 0h9l3 1 1 6v90l-1 35-1 1h-10l-2-3v-129z" fill="#010101"/>
</svg>
